<mxfile host="app.diagrams.net" modified="2024-02-23T08:11:11.226Z" agent="Mozilla/5.0 (Macintosh; Intel Mac OS X 10_15_7) AppleWebKit/537.36 (KHTML, like Gecko) Chrome/121.0.0.0 Safari/537.36" version="23.1.1" etag="s64tQ2ZzyuR8hJjjWkLF" type="github">
  <diagram name="第 1 页" id="I7meE1IPV0lcLxMaDeI9">
    <mxGraphModel>
      <root>
        <mxCell id="0" />
        <mxCell id="1" parent="0" />
      </root>
    </mxGraphModel>
  </diagram>
</mxfile>
